<svg width="139" height="139" viewBox="0 0 139 139" fill="none" xmlns="http://www.w3.org/2000/svg">
<path d="M127.417 17.375H11.5833C5.27042 17.6067 0.231667 22.6454 0 28.9583V110.042C0.231667 116.355 5.27042 121.393 11.5833 121.625H127.417C133.73 121.393 138.768 116.355 139 110.042V28.9583C138.893 25.9202 137.639 23.0354 135.489 20.8858C133.34 18.7362 130.455 17.4816 127.417 17.375ZM127.417 110.042H11.5833V28.9583H127.417V110.042ZM81.0833 98.4583V91.2187C81.0833 81.6046 61.7392 76.7396 52.125 76.7396C42.5108 76.7396 23.1667 81.6046 23.1667 91.2187V98.4583H81.0833ZM52.125 40.5417C48.2849 40.5417 44.6021 42.0671 41.8867 44.7825C39.1713 47.4979 37.6458 51.1807 37.6458 55.0208C37.6458 56.9223 38.0203 58.8051 38.748 60.5618C39.4756 62.3185 40.5422 63.9146 41.8867 65.2591C44.6021 67.9745 48.2849 69.5 52.125 69.5C54.0264 69.5 55.9092 69.1255 57.6659 68.3978C59.4226 67.6702 61.0188 66.6037 62.3633 65.2591C63.7078 63.9146 64.7744 62.3185 65.502 60.5618C66.2297 58.8051 66.6042 56.9223 66.6042 55.0208C66.6042 53.1194 66.2297 51.2366 65.502 49.4799C64.7744 47.7232 63.7078 46.127 62.3633 44.7825C61.0188 43.438 59.4226 42.3715 57.6659 41.6438C55.9092 40.9162 54.0264 40.5417 52.125 40.5417ZM81.0833 40.5417V46.3333H115.833V40.5417H81.0833ZM81.0833 52.125V57.9167H115.833V52.125H81.0833ZM81.0833 63.7083V69.5H104.25V63.7083H81.0833Z" fill="#D3C900"/>
</svg>
